<svg width="45" height="45" viewBox="0 0 45 45" fill="none" xmlns="http://www.w3.org/2000/svg">
<rect width="45" height="45" rx="4" fill="#313131"/>
<path d="M44.7537 22.3768C44.7537 34.7352 34.7352 44.7537 22.3768 44.7537C10.0184 44.7537 0 34.7352 0 22.3768C0 10.0184 10.0184 0 22.3768 0C34.7352 0 44.7537 10.0184 44.7537 22.3768Z" fill="#313131"/>
<path d="M9.945 28V17.365H12.63V28H9.945ZM12.075 24.025V21.76H17.34V24.025H12.075ZM12.075 19.63V17.365H17.58V19.63H12.075Z" fill="white"/>
<path d="M20.45 23.1C20.2367 23.1 20.06 23.03 19.92 22.89C19.7867 22.7433 19.72 22.5667 19.72 22.36C19.72 22.1467 19.7867 21.97 19.92 21.83C20.06 21.69 20.2367 21.62 20.45 21.62C20.6633 21.62 20.8367 21.69 20.97 21.83C21.11 21.97 21.18 22.1467 21.18 22.36C21.18 22.5667 21.11 22.7433 20.97 22.89C20.8367 23.03 20.6633 23.1 20.45 23.1ZM24.0804 23.1C23.8137 23.1 23.5571 23.0667 23.3104 23C23.0637 22.9267 22.8371 22.8267 22.6304 22.7C22.4237 22.5667 22.2437 22.4067 22.0904 22.22L22.7904 21.52C22.9571 21.7133 23.1471 21.86 23.3604 21.96C23.5804 22.0533 23.8271 22.1 24.1004 22.1C24.3471 22.1 24.5337 22.0633 24.6604 21.99C24.7871 21.9167 24.8504 21.81 24.8504 21.67C24.8504 21.5233 24.7904 21.41 24.6704 21.33C24.5504 21.25 24.3937 21.1833 24.2004 21.13C24.0137 21.07 23.8137 21.01 23.6004 20.95C23.3937 20.89 23.1937 20.81 23.0004 20.71C22.8137 20.6033 22.6604 20.46 22.5404 20.28C22.4204 20.1 22.3604 19.8667 22.3604 19.58C22.3604 19.2733 22.4304 19.01 22.5704 18.79C22.7171 18.57 22.9204 18.4 23.1804 18.28C23.4471 18.16 23.7637 18.1 24.1304 18.1C24.5171 18.1 24.8571 18.17 25.1504 18.31C25.4504 18.4433 25.7004 18.6467 25.9004 18.92L25.2004 19.62C25.0604 19.4467 24.9004 19.3167 24.7204 19.23C24.5404 19.1433 24.3337 19.1 24.1004 19.1C23.8804 19.1 23.7104 19.1333 23.5904 19.2C23.4704 19.2667 23.4104 19.3633 23.4104 19.49C23.4104 19.6233 23.4704 19.7267 23.5904 19.8C23.7104 19.8733 23.8637 19.9367 24.0504 19.99C24.2437 20.0433 24.4437 20.1033 24.6504 20.17C24.8637 20.23 25.0637 20.3167 25.2504 20.43C25.4437 20.5367 25.6004 20.6833 25.7204 20.87C25.8404 21.05 25.9004 21.2867 25.9004 21.58C25.9004 22.0467 25.7371 22.4167 25.4104 22.69C25.0837 22.9633 24.6404 23.1 24.0804 23.1ZM28.4273 23L26.2373 18.2H27.4573L29.1273 22.11H28.4073L30.0873 18.2H31.2573L29.0673 23H28.4273ZM33.7487 25.1C33.242 25.1 32.7987 25.0067 32.4187 24.82C32.0387 24.64 31.732 24.3833 31.4987 24.05L32.2187 23.33C32.412 23.57 32.632 23.75 32.8787 23.87C33.1253 23.99 33.422 24.05 33.7687 24.05C34.202 24.05 34.5453 23.9367 34.7987 23.71C35.052 23.49 35.1787 23.1867 35.1787 22.8V21.62L35.3687 20.56L35.1787 19.49V18.2H36.2787V22.8C36.2787 23.26 36.172 23.66 35.9587 24C35.7453 24.3467 35.4487 24.6167 35.0687 24.81C34.6887 25.0033 34.2487 25.1 33.7487 25.1ZM33.6987 22.9C33.272 22.9 32.8853 22.7967 32.5387 22.59C32.1987 22.3767 31.9287 22.0867 31.7287 21.72C31.5353 21.3533 31.4387 20.9433 31.4387 20.49C31.4387 20.0367 31.5353 19.63 31.7287 19.27C31.9287 18.91 32.1987 18.6267 32.5387 18.42C32.8853 18.2067 33.272 18.1 33.6987 18.1C34.0787 18.1 34.412 18.1767 34.6987 18.33C34.9853 18.4833 35.2087 18.6967 35.3687 18.97C35.5287 19.2367 35.6087 19.55 35.6087 19.91V21.09C35.6087 21.4433 35.5253 21.7567 35.3587 22.03C35.1987 22.3033 34.9753 22.5167 34.6887 22.67C34.402 22.8233 34.072 22.9 33.6987 22.9ZM33.9187 21.86C34.1853 21.86 34.4187 21.8033 34.6187 21.69C34.8187 21.5767 34.972 21.42 35.0787 21.22C35.192 21.0133 35.2487 20.7733 35.2487 20.5C35.2487 20.2267 35.192 19.99 35.0787 19.79C34.972 19.5833 34.8187 19.4233 34.6187 19.31C34.4187 19.1967 34.1853 19.14 33.9187 19.14C33.652 19.14 33.4153 19.1967 33.2087 19.31C33.0087 19.4233 32.852 19.5833 32.7387 19.79C32.6253 19.99 32.5687 20.2267 32.5687 20.5C32.5687 20.7667 32.6253 21.0033 32.7387 21.21C32.852 21.4167 33.0087 21.5767 33.2087 21.69C33.4153 21.8033 33.652 21.86 33.9187 21.86Z" fill="white"/>
<line x1="19" y1="27.5" x2="37" y2="27.5" stroke="white"/>
</svg>
