<?xml version="1.0" encoding="UTF-8"?>
<svg xmlns="http://www.w3.org/2000/svg" version="1.1" viewBox="0 0 33 33">
  <defs>
    <style>
      .cls-1 {
        fill: #1c274c;
      }
    </style>
  </defs>
  <!-- Generator: Adobe Illustrator 28.7.7, SVG Export Plug-In . SVG Version: 1.2.0 Build 194)  -->
  <g>
    <g id="Layer_1">
      <path class="cls-1" d="M16.5,28c.9,0,1.6.7,1.6,1.6v1.5c0,.9-.7,1.6-1.6,1.6s-1.6-.7-1.6-1.6v-1.5c0-.9.7-1.6,1.6-1.6ZM5.7,25.1c.6-.6,1.6-.6,2.2,0,.6.6.6,1.6,0,2.2l-.6.6h0s0,0,0,0h0s0,0,0,0c-.6.5-1.5.5-2.1-.1-.6-.6-.6-1.6,0-2.2l.6-.6ZM25.1,25.1c.5-.5,1.4-.6,2-.2h.1c0,0,0,0,0,0h0s0,0,0,0h0s.6.6.6.6c.6.6.6,1.6,0,2.2-.6.6-1.5.6-2.1.1h-.1c0-.1-.6-.7-.6-.7-.6-.6-.6-1.6,0-2.2ZM16.5,6.2c5.7,0,10.3,4.6,10.3,10.3s-4.6,10.3-10.3,10.3-10.3-4.6-10.3-10.3.2-2.4.6-3.4h0c.3-.9,1.2-1.2,1.9-1,.8.3,1.2,1.2,1,2-.3.7-.4,1.5-.4,2.4,0,4,3.2,7.2,7.2,7.2s7.2-3.2,7.2-7.2-3.2-7.2-7.2-7.2-1.6.1-2.4.4c-.8.3-1.7-.1-2-1-.3-.8.1-1.7,1-2h.4c1-.4,2-.6,3-.6ZM3.4,14.9c.9,0,1.6.7,1.6,1.6s-.7,1.6-1.6,1.6h-1.5c-.9,0-1.6-.7-1.6-1.6,0-.9.7-1.6,1.6-1.6h1.5ZM31.1,14.9c.9,0,1.6.7,1.6,1.6s-.7,1.6-1.6,1.6h-1.5c-.9,0-1.6-.7-1.6-1.6s.7-1.6,1.6-1.6h1.5ZM25.8,5c.6-.5,1.5-.5,2.1.1.6.6.6,1.6,0,2.2l-.6.6c-.6.6-1.6.6-2.2,0-.6-.6-.6-1.6,0-2.2l.6-.6h.1ZM5.1,5.1c.5-.5,1.4-.6,2-.2h.1c0,0,0,0,0,0h0s0,0,0,0h0s.6.6.6.6c.6.6.6,1.5.1,2.1h-.1c-.6.7-1.5.7-2.1.2h0s0,0,0,0h0c0,0-.6-.7-.6-.7h0s0-.1,0-.1c-.5-.6-.5-1.5.1-2.1ZM16.5.4c.9,0,1.6.7,1.6,1.6v1.5c0,.9-.7,1.6-1.6,1.6s-1.6-.7-1.6-1.6v-1.5c0-.9.7-1.6,1.6-1.6Z"/>
    </g>
  </g>
</svg>