<?xml version="1.0" encoding="UTF-8"?>
<svg xmlns="http://www.w3.org/2000/svg" version="1.1" viewBox="0 0 33 33">
  <defs>
    <style>
      .cls-1 {
        fill: #1c274c;
      }
    </style>
  </defs>
  <!-- Generator: Adobe Illustrator 28.7.7, SVG Export Plug-In . SVG Version: 1.2.0 Build 194)  -->
  <g>
    <g id="Layer_1">
      <path class="cls-1" d="M16.5,28c1,0,1.7,1,1.6,1.9,0,.2,0,.5,0,.7.2,2.6-3.4,2.6-3.1,0,0-.2,0-.5,0-.7-.1-1,.5-1.9,1.6-1.9Z"/>
      <path class="cls-1" d="M5.7,25.1c1.6-1.5,3.7.9,2.1,2.4-.1.1-.3.3-.4.4h0s0,0,0,0c-1.6,1.3-3.6-1.1-2-2.5.1-.1.3-.3.4-.4Z"/>
      <path class="cls-1" d="M25.1,25.1c.5-.5,1.4-.6,2-.2h.1c0,0,0,0,0,0,0,0,0,0,0,0,.1.1.3.3.4.4,1.6,1.3-.3,3.7-2,2.5h-.1c-.1-.2-.3-.4-.4-.5-.7-.6-.8-1.7-.1-2.4Z"/>
      <path class="cls-1" d="M16.5,6.2c9.1,0,13.7,11.2,7.3,17.6-7.8,7.6-20.5-.4-17-10.7h0c.5-1.3,2.3-1.3,2.8-.2.3.6,0,1.2-.1,1.8-.4,1.5-.3,3.2.3,4.6,2.3,5.8,10.9,5.8,13.2,0,2.3-5-2.4-10.9-7.8-9.8-.8,0-1.6.6-2.4.2-1.2-.5-1.1-2.5.2-2.9h.4c1-.4,2-.6,3-.6Z"/>
      <path class="cls-1" d="M3.4,14.9c2.3.2,1.9,3.4-.4,3.1-.2,0-.5,0-.7,0-1.5.2-2.6-1.5-1.5-2.7.4-.4.9-.5,1.5-.5.3,0,.8,0,1.1,0Z"/>
      <path class="cls-1" d="M31.1,14.9c2.3.2,1.9,3.4-.4,3.1-.2,0-.5,0-.7,0-1.5.2-2.6-1.5-1.5-2.7.4-.4.9-.5,1.5-.5.3,0,.8,0,1.1,0Z"/>
      <path class="cls-1" d="M25.8,5c1.7-1.3,3.6,1.1,2,2.5-.1.1-.3.3-.4.4-1.6,1.5-3.7-.9-2.1-2.4.1-.1.3-.3.4-.4h.1Z"/>
      <path class="cls-1" d="M5.1,5.1c.5-.5,1.4-.6,2-.2h.1c0,0,0,0,0,0,0,0,0,0,0,0h0c.1.1.3.3.4.4.7.5.8,1.6.3,2.2h-.1c-.6.7-1.5.7-2.1.2h0s0,0,0,0h0c-.2-.3-.4-.5-.6-.7,0,0,0,0-.1-.1-.5-.6-.5-1.5.1-2.1Z"/>
      <path class="cls-1" d="M16.5.4c1,0,1.7,1,1.6,1.9,0,.2,0,.5,0,.7.2,2.6-3.4,2.6-3.1,0,0-.2,0-.5,0-.7-.1-1,.5-1.9,1.6-1.9Z"/>
    </g>
  </g>
</svg>