<svg width="16" height="14" viewBox="0 0 16 14" fill="none" xmlns="http://www.w3.org/2000/svg">
<path d="M8.1 0.899902V9.9999M8.1 9.9999L6 7.5499M8.1 9.9999L10.2 7.5499" stroke="white" stroke-width="1.2" stroke-linecap="round" stroke-linejoin="round"/>
<path d="M5.2 12.9999H10.8C12.7799 12.9999 13.7698 12.9999 14.3849 12.3848C15 11.7698 15 10.7798 15 8.7999V8.0999C15 6.12002 15 5.13008 14.3849 4.51499C13.847 3.97711 13.0225 3.9096 11.5 3.90112M4.5 3.90112C2.97748 3.9096 2.15294 3.97711 1.61508 4.51498C1 5.13008 1 6.12002 1 8.0999V8.7999C1 10.7798 1 11.7698 1.61508 12.3848C1.82494 12.5947 2.07843 12.7329 2.4 12.8241" stroke="white" stroke-width="1.2" stroke-linecap="round"/>
</svg>
