<svg width="33" height="33" viewBox="0 0 33 33" fill="none" xmlns="http://www.w3.org/2000/svg">
<path d="M20.0391 1.52702L18.9511 3.70309C18.9244 3.75631 18.8814 3.79947 18.8282 3.82607L16.6521 4.91411C16.4493 5.01546 16.4493 5.30471 16.6521 5.40604L18.8282 6.49408C18.8814 6.5207 18.9244 6.56385 18.9511 6.61706L20.0391 8.79315C20.1405 8.99584 20.4298 8.99584 20.5311 8.79315L21.6192 6.61706C21.6457 6.56385 21.6889 6.52069 21.7421 6.49408L23.9182 5.40604C24.1208 5.30471 24.1208 5.01546 23.9182 4.91411L21.7421 3.82607C21.6889 3.79947 21.6457 3.75631 21.6192 3.70309L20.5311 1.52702C20.4298 1.32433 20.1405 1.32433 20.0391 1.52702Z" fill="white"/>
<path d="M26.4575 6.97429L25.3869 10.1862C25.3595 10.2683 25.295 10.3327 25.2129 10.3601L22.0011 11.4307C21.7503 11.5143 21.7503 11.8689 22.0011 11.9525L25.2129 13.0232C25.295 13.0505 25.3595 13.115 25.3869 13.1971L26.4575 16.409C26.5411 16.6596 26.8957 16.6596 26.9793 16.409L28.0498 13.1971C28.0773 13.115 28.1417 13.0505 28.2238 13.0232L31.4358 11.9525C31.6864 11.8689 31.6864 11.5143 31.4358 11.4307L28.2238 10.3601C28.1417 10.3327 28.0773 10.2683 28.0498 10.1862L26.9793 6.97429C26.8957 6.72358 26.5411 6.72358 26.4575 6.97429Z" fill="white"/>
<path fill-rule="evenodd" clip-rule="evenodd" d="M14.3103 18.7883C18.1979 22.6758 24.2711 23.0124 28.4131 19.7592C28.4644 19.7189 28.5154 19.678 28.5662 19.6366C28.7579 19.4802 28.9451 19.3159 29.1276 19.1436C29.2017 19.0737 29.275 19.0026 29.3475 18.9302C30.0516 18.2259 31.4963 18.642 31.2836 19.6148C31.2102 19.951 31.1252 20.2836 31.0292 20.6119C30.9723 20.8066 30.9115 21 30.8469 21.1918C30.8293 21.244 30.8113 21.2964 30.7931 21.3485C28.7343 27.2445 23.0843 31.6254 16.5 31.6254C8.1467 31.6254 1.375 24.8537 1.375 16.5004C1.375 9.80808 5.89993 4.10104 11.9197 2.12096L11.9934 2.09693C12.1254 2.05426 12.2582 2.01338 12.3916 1.97432C12.7457 1.87063 13.1046 1.77977 13.4677 1.70226C14.4896 1.48409 14.9075 3.01226 14.1684 3.7512C14.0951 3.82452 14.0232 3.89866 13.9525 3.97359C13.8127 4.12193 13.678 4.27341 13.5486 4.42781C13.5202 4.46166 13.4921 4.49565 13.4642 4.52978C10.0783 8.6741 10.3738 14.8516 14.3103 18.7883ZM12.3658 20.7328C16.1216 24.4886 21.5496 25.6161 26.2449 24.0203C23.9636 26.9533 20.4188 28.8754 16.5 28.8754C9.66548 28.8754 4.125 23.335 4.125 16.5004C4.125 12.501 6.12773 8.89846 9.1583 6.62538C7.44657 11.3722 8.54893 16.9159 12.3658 20.7328Z" fill="white"/>
</svg>
