<svg width="39" height="40" viewBox="0 0 39 40" fill="none" xmlns="http://www.w3.org/2000/svg">
<path d="M35.2286 5.55295V34.4471C35.2286 35.1544 34.6546 35.7284 33.9474 35.7284H5.0532C4.34596 35.7284 3.77197 35.1544 3.77197 34.4471V5.55295C3.77197 4.84572 4.34596 4.27173 5.0532 4.27173H33.9474C34.6546 4.27173 35.2286 4.84572 35.2286 5.55295Z" fill="#58CAFF"/>
<path d="M35.2283 5.55295V34.4471C35.2283 35.1544 34.6543 35.7284 33.9471 35.7284H19.5V4.27173H33.9471C34.6543 4.27173 35.2283 4.84572 35.2283 5.55295Z" fill="#0998F7"/>
<path d="M6.33447 6.83423H32.6662V33.166H6.33447V6.83423Z" fill="#0D0D0D"/>
<path d="M19.5 6.83423H32.6659V33.166H19.5V6.83423Z" fill="#1D1D1D"/>
<path d="M27.2738 13.3735V16.0239C27.2738 16.7312 26.6998 17.3052 25.9926 17.3052C25.2845 17.3052 24.7113 16.7312 24.7113 16.0239V14.6547H20.7814V25.3453H21.6723C22.3804 25.3453 22.9535 25.9193 22.9535 26.6265C22.9535 27.3337 22.3804 27.9077 21.6723 27.9077H17.3272C16.62 27.9077 16.046 27.3337 16.046 26.6265C16.046 25.9193 16.62 25.3453 17.3272 25.3453H18.219V14.6547H14.289V16.0239C14.289 16.7312 13.715 17.3052 13.0078 17.3052C12.3006 17.3052 11.7266 16.7312 11.7266 16.0239V13.3735C11.7266 12.6654 12.3006 12.0923 13.0078 12.0923H25.9926C26.6998 12.0923 27.2738 12.6654 27.2738 13.3735Z" fill="white"/>
<path d="M27.2736 13.3735V16.0239C27.2736 16.7312 26.6996 17.3052 25.9924 17.3052C25.2843 17.3052 24.7112 16.7312 24.7112 16.0239V14.6547H20.7812V25.3453H21.6721C22.3802 25.3453 22.9533 25.9193 22.9533 26.6265C22.9533 27.3337 22.3802 27.9077 21.6721 27.9077H19.5V12.0923H25.9924C26.6996 12.0923 27.2736 12.6654 27.2736 13.3735Z" fill="#CCCCCC"/>
<path d="M5.05326 0.737061C2.39779 0.737061 0.237305 2.89746 0.237305 5.55301C0.237305 8.20857 2.39771 10.3689 5.05326 10.3689C7.70881 10.3689 9.86913 8.20848 9.86913 5.55301C9.86913 2.89755 7.70872 0.737061 5.05326 0.737061Z" fill="#1AA7FF"/>
<path d="M7.3063 5.55305C7.3063 6.79584 6.29584 7.8063 5.05305 7.8063C3.81026 7.8063 2.7998 6.79584 2.7998 5.55305C2.7998 4.31026 3.81026 3.2998 5.05305 3.2998C6.29584 3.2998 7.3063 4.31026 7.3063 5.55305Z" fill="#0D0D0D"/>
<path d="M33.9468 0.737061C31.2913 0.737061 29.1309 2.89746 29.1309 5.55301C29.1309 8.20857 31.2913 10.3689 33.9468 10.3689C36.6024 10.3689 38.7628 8.20848 38.7628 5.55301C38.7628 2.89755 36.6024 0.737061 33.9468 0.737061Z" fill="#1AA7FF"/>
<path d="M36.2007 5.55305C36.2007 6.79584 35.1894 7.8063 33.9475 7.8063C32.7047 7.8063 31.6934 6.79584 31.6934 5.55305C31.6934 4.31026 32.7047 3.2998 33.9475 3.2998C35.1894 3.2998 36.2007 4.31026 36.2007 5.55305Z" fill="#0D0D0D"/>
<path d="M5.05326 29.6309C2.39779 29.6309 0.237305 31.7913 0.237305 34.4468C0.237305 37.1024 2.39771 39.2628 5.05326 39.2628C7.70881 39.2628 9.86913 37.1024 9.86913 34.4468C9.86913 31.7913 7.70872 29.6309 5.05326 29.6309Z" fill="#1AA7FF"/>
<path d="M7.3063 34.4472C7.3063 35.6891 6.29584 36.7005 5.05305 36.7005C3.81026 36.7005 2.7998 35.6891 2.7998 34.4472C2.7998 33.2044 3.81026 32.1931 5.05305 32.1931C6.29584 32.1931 7.3063 33.2044 7.3063 34.4472Z" fill="#0D0D0D"/>
</svg>
